<svg width="342" height="182" viewBox="0 0 342 182" fill="none" xmlns="http://www.w3.org/2000/svg">
<g filter="url(#filter0_d)">
<path d="M9.648 144C8.88 144 8.256 143.76 7.776 143.28C7.296 142.8 7.056 142.176 7.056 141.408V45.792C7.056 45.024 7.296 44.4 7.776 43.92C8.256 43.44 8.88 43.2 9.648 43.2H45.504C52.992 43.2 59.616 44.496 65.376 47.088C71.136 49.68 75.6 53.376 78.768 58.176C81.936 62.976 83.52 68.496 83.52 74.736V112.464C83.52 118.704 81.936 124.224 78.768 129.024C75.6 133.824 71.136 137.52 65.376 140.112C59.616 142.704 52.992 144 45.504 144H9.648ZM30.96 122.544C30.96 123.216 31.296 123.552 31.968 123.552H46.512C50.352 123.552 53.472 122.208 55.872 119.52C58.272 116.736 59.52 113.04 59.616 108.432V78.768C59.616 74.16 58.368 70.512 55.872 67.824C53.472 65.04 50.304 63.648 46.368 63.648H31.968C31.296 63.648 30.96 63.984 30.96 64.656V122.544ZM143.592 145.152C135.912 145.152 129.144 143.904 123.288 141.408C117.528 138.816 113.064 135.168 109.896 130.464C106.728 125.664 105.144 120.144 105.144 113.904V112.032C105.144 111.264 105.384 110.64 105.864 110.16C106.344 109.68 106.968 109.44 107.736 109.44H126.024C126.792 109.44 127.416 109.632 127.896 110.016C128.376 110.304 128.616 110.688 128.616 111.168V112.896C128.616 115.968 130.152 118.704 133.224 121.104C136.392 123.504 140.424 124.704 145.32 124.704C149.544 124.704 152.664 123.792 154.68 121.968C156.696 120.144 157.704 118.032 157.704 115.632C157.704 112.944 156.504 110.88 154.104 109.44C151.8 108 147.624 106.32 141.576 104.4L138.408 103.392C132.264 101.376 126.888 99.216 122.28 96.912C117.672 94.512 113.736 91.248 110.472 87.12C107.208 82.896 105.576 77.712 105.576 71.568C105.576 65.616 107.112 60.432 110.184 56.016C113.352 51.504 117.672 48.048 123.144 45.648C128.712 43.248 135 42.048 142.008 42.048C149.4 42.048 156.024 43.392 161.88 46.08C167.832 48.768 172.488 52.56 175.848 57.456C179.208 62.352 180.888 67.968 180.888 74.304V75.456C180.888 76.224 180.648 76.848 180.168 77.328C179.688 77.808 179.064 78.048 178.296 78.048H160.008C159.24 78.048 158.616 77.952 158.136 77.76C157.656 77.472 157.416 77.088 157.416 76.608V75.312C157.416 71.952 155.928 68.976 152.952 66.384C149.976 63.792 145.992 62.496 141 62.496C137.256 62.496 134.328 63.264 132.216 64.8C130.104 66.336 129.048 68.496 129.048 71.28C129.048 73.392 129.72 75.168 131.064 76.608C132.408 77.952 134.472 79.248 137.256 80.496C140.136 81.648 144.504 83.184 150.36 85.104C157.08 87.408 162.312 89.424 166.056 91.152C169.8 92.88 173.304 95.712 176.568 99.648C179.928 103.488 181.608 108.576 181.608 114.912C181.608 120.96 180.024 126.288 176.856 130.896C173.688 135.408 169.224 138.912 163.464 141.408C157.704 143.904 151.08 145.152 143.592 145.152ZM229.464 144C227.928 144 226.968 143.28 226.584 141.84L197.928 46.08C197.832 45.792 197.784 45.456 197.784 45.072C197.784 43.824 198.552 43.2 200.088 43.2H220.392C221.928 43.2 222.888 43.968 223.272 45.504L239.544 109.44C239.736 109.824 239.928 110.016 240.12 110.016C240.408 110.016 240.6 109.824 240.696 109.44L256.68 45.504C257.064 43.968 258.024 43.2 259.56 43.2H279.432C280.392 43.2 281.064 43.44 281.448 43.92C281.832 44.4 281.88 45.12 281.592 46.08L252.648 141.84C252.264 143.28 251.256 144 249.624 144H229.464Z" fill="#34224A"/>
</g>
<path d="M24.038 156.634C24.038 156.478 24.116 156.4 24.272 156.4H25.082C25.238 156.4 25.316 156.478 25.316 156.634V168.766C25.316 168.922 25.238 169 25.082 169H24.272C24.116 169 24.038 168.922 24.038 168.766V168.082C24.038 168.046 24.026 168.028 24.002 168.028C23.978 168.016 23.954 168.022 23.93 168.046C23.666 168.394 23.336 168.664 22.94 168.856C22.556 169.048 22.124 169.144 21.644 169.144C20.804 169.144 20.096 168.928 19.52 168.496C18.956 168.064 18.566 167.476 18.35 166.732C18.182 166.192 18.098 165.43 18.098 164.446C18.098 163.45 18.17 162.706 18.314 162.214C18.53 161.446 18.926 160.846 19.502 160.414C20.078 159.97 20.792 159.748 21.644 159.748C22.112 159.748 22.544 159.844 22.94 160.036C23.336 160.216 23.666 160.48 23.93 160.828C23.954 160.864 23.978 160.876 24.002 160.864C24.026 160.852 24.038 160.828 24.038 160.792V156.634ZM23.696 166.642C23.804 166.402 23.882 166.12 23.93 165.796C23.978 165.472 24.002 165.022 24.002 164.446C24.002 163.87 23.978 163.42 23.93 163.096C23.882 162.76 23.798 162.466 23.678 162.214C23.534 161.806 23.294 161.482 22.958 161.242C22.634 160.99 22.244 160.864 21.788 160.864C21.308 160.864 20.894 160.984 20.546 161.224C20.198 161.464 19.946 161.782 19.79 162.178C19.646 162.442 19.538 162.742 19.466 163.078C19.406 163.402 19.376 163.858 19.376 164.446C19.376 165.01 19.4 165.454 19.448 165.778C19.496 166.09 19.58 166.372 19.7 166.624C19.844 167.056 20.096 167.398 20.456 167.65C20.828 167.902 21.266 168.028 21.77 168.028C22.25 168.028 22.652 167.902 22.976 167.65C23.3 167.398 23.54 167.062 23.696 166.642ZM32.7859 159.748C33.8659 159.748 34.6999 160.024 35.2879 160.576C35.8879 161.128 36.1879 161.86 36.1879 162.772V168.766C36.1879 168.922 36.1099 169 35.9539 169H35.1439C34.9879 169 34.9099 168.922 34.9099 168.766V168.118C34.9099 168.082 34.8979 168.058 34.8739 168.046C34.8499 168.034 34.8259 168.046 34.8019 168.082C34.4779 168.43 34.0699 168.694 33.5779 168.874C33.0979 169.054 32.5699 169.144 31.9939 169.144C31.1539 169.144 30.4459 168.928 29.8699 168.496C29.3059 168.064 29.0239 167.404 29.0239 166.516C29.0239 165.616 29.3479 164.908 29.9959 164.392C30.6559 163.864 31.5679 163.6 32.7319 163.6H34.8199C34.8799 163.6 34.9099 163.57 34.9099 163.51V162.844C34.9099 162.232 34.7359 161.752 34.3879 161.404C34.0519 161.044 33.5239 160.864 32.8039 160.864C32.2399 160.864 31.7779 160.972 31.4179 161.188C31.0579 161.404 30.8299 161.704 30.7339 162.088C30.6979 162.232 30.6079 162.292 30.4639 162.268L29.5819 162.16C29.4259 162.136 29.3539 162.07 29.3659 161.962C29.4859 161.302 29.8519 160.768 30.4639 160.36C31.0879 159.952 31.8619 159.748 32.7859 159.748ZM32.2819 168.046C32.9899 168.046 33.6019 167.872 34.1179 167.524C34.6459 167.164 34.9099 166.684 34.9099 166.084V164.698C34.9099 164.638 34.8799 164.608 34.8199 164.608H32.9299C32.1379 164.608 31.5019 164.77 31.0219 165.094C30.5419 165.418 30.3019 165.868 30.3019 166.444C30.3019 166.972 30.4879 167.374 30.8599 167.65C31.2319 167.914 31.7059 168.046 32.2819 168.046ZM44.2849 160.72C44.2849 160.876 44.2069 160.954 44.0509 160.954H42.0889C42.0289 160.954 41.9989 160.984 41.9989 161.044V166.3C41.9989 166.876 42.1249 167.284 42.3769 167.524C42.6409 167.752 43.0489 167.866 43.6009 167.866H43.9969C44.1529 167.866 44.2309 167.944 44.2309 168.1V168.73C44.2309 168.886 44.1529 168.97 43.9969 168.982H43.3849C42.5209 168.982 41.8669 168.82 41.4229 168.496C40.9789 168.172 40.7569 167.572 40.7569 166.696V161.044C40.7569 160.984 40.7269 160.954 40.6669 160.954H39.6409C39.4849 160.954 39.4069 160.876 39.4069 160.72V160.126C39.4069 159.97 39.4849 159.892 39.6409 159.892H40.6669C40.7269 159.892 40.7569 159.862 40.7569 159.802V157.786C40.7569 157.63 40.8349 157.552 40.9909 157.552H41.7649C41.9209 157.552 41.9989 157.63 41.9989 157.786V159.802C41.9989 159.862 42.0289 159.892 42.0889 159.892H44.0509C44.2069 159.892 44.2849 159.97 44.2849 160.126V160.72ZM51.3455 159.748C52.4255 159.748 53.2595 160.024 53.8475 160.576C54.4475 161.128 54.7475 161.86 54.7475 162.772V168.766C54.7475 168.922 54.6695 169 54.5135 169H53.7035C53.5475 169 53.4695 168.922 53.4695 168.766V168.118C53.4695 168.082 53.4575 168.058 53.4335 168.046C53.4095 168.034 53.3855 168.046 53.3615 168.082C53.0375 168.43 52.6295 168.694 52.1375 168.874C51.6575 169.054 51.1295 169.144 50.5535 169.144C49.7135 169.144 49.0055 168.928 48.4295 168.496C47.8655 168.064 47.5835 167.404 47.5835 166.516C47.5835 165.616 47.9075 164.908 48.5555 164.392C49.2155 163.864 50.1275 163.6 51.2915 163.6H53.3795C53.4395 163.6 53.4695 163.57 53.4695 163.51V162.844C53.4695 162.232 53.2955 161.752 52.9475 161.404C52.6115 161.044 52.0835 160.864 51.3635 160.864C50.7995 160.864 50.3375 160.972 49.9775 161.188C49.6175 161.404 49.3895 161.704 49.2935 162.088C49.2575 162.232 49.1675 162.292 49.0235 162.268L48.1415 162.16C47.9855 162.136 47.9135 162.07 47.9255 161.962C48.0455 161.302 48.4115 160.768 49.0235 160.36C49.6475 159.952 50.4215 159.748 51.3455 159.748ZM50.8415 168.046C51.5495 168.046 52.1615 167.872 52.6775 167.524C53.2055 167.164 53.4695 166.684 53.4695 166.084V164.698C53.4695 164.638 53.4395 164.608 53.3795 164.608H51.4895C50.6975 164.608 50.0615 164.77 49.5815 165.094C49.1015 165.418 48.8615 165.868 48.8615 166.444C48.8615 166.972 49.0475 167.374 49.4195 167.65C49.7915 167.914 50.2655 168.046 50.8415 168.046Z" fill="#34224B"/>
<path d="M76.428 169.09C75.756 169.09 75.156 168.982 74.628 168.766C74.112 168.55 73.71 168.262 73.422 167.902C73.146 167.542 73.008 167.14 73.008 166.696V166.534C73.008 166.378 73.086 166.3 73.242 166.3H74.016C74.088 166.3 74.142 166.318 74.178 166.354C74.226 166.378 74.25 166.414 74.25 166.462V166.624C74.25 167.02 74.454 167.368 74.862 167.668C75.27 167.956 75.786 168.1 76.41 168.1C77.034 168.1 77.538 167.962 77.922 167.686C78.306 167.398 78.498 167.038 78.498 166.606C78.498 166.306 78.402 166.06 78.21 165.868C78.018 165.676 77.784 165.526 77.508 165.418C77.232 165.31 76.818 165.172 76.266 165.004C75.594 164.812 75.042 164.62 74.61 164.428C74.178 164.236 73.812 163.972 73.512 163.636C73.212 163.288 73.062 162.85 73.062 162.322C73.062 161.554 73.362 160.942 73.962 160.486C74.574 160.03 75.372 159.802 76.356 159.802C77.016 159.802 77.598 159.91 78.102 160.126C78.618 160.342 79.014 160.642 79.29 161.026C79.566 161.398 79.704 161.818 79.704 162.286C79.704 162.442 79.626 162.52 79.47 162.52H78.732C78.576 162.52 78.498 162.478 78.498 162.394V162.286C78.498 161.878 78.3 161.536 77.904 161.26C77.52 160.984 76.998 160.846 76.338 160.846C75.726 160.846 75.234 160.972 74.862 161.224C74.49 161.464 74.304 161.8 74.304 162.232C74.304 162.64 74.478 162.952 74.826 163.168C75.186 163.384 75.744 163.6 76.5 163.816C77.196 164.008 77.76 164.194 78.192 164.374C78.624 164.554 78.996 164.818 79.308 165.166C79.62 165.514 79.776 165.964 79.776 166.516C79.776 167.296 79.47 167.92 78.858 168.388C78.258 168.856 77.448 169.09 76.428 169.09ZM87.632 160.72C87.632 160.876 87.554 160.954 87.398 160.954H85.436C85.376 160.954 85.346 160.984 85.346 161.044V166.3C85.346 166.876 85.472 167.284 85.724 167.524C85.988 167.752 86.396 167.866 86.948 167.866H87.344C87.5 167.866 87.578 167.944 87.578 168.1V168.73C87.578 168.886 87.5 168.97 87.344 168.982H86.732C85.868 168.982 85.214 168.82 84.77 168.496C84.326 168.172 84.104 167.572 84.104 166.696V161.044C84.104 160.984 84.074 160.954 84.014 160.954H82.988C82.832 160.954 82.754 160.876 82.754 160.72V160.126C82.754 159.97 82.832 159.892 82.988 159.892H84.014C84.074 159.892 84.104 159.862 84.104 159.802V157.786C84.104 157.63 84.182 157.552 84.338 157.552H85.112C85.268 157.552 85.346 157.63 85.346 157.786V159.802C85.346 159.862 85.376 159.892 85.436 159.892H87.398C87.554 159.892 87.632 159.97 87.632 160.126V160.72ZM95.2147 159.802C95.6107 159.802 95.9407 159.874 96.2047 160.018C96.3247 160.066 96.3667 160.162 96.3307 160.306L96.1507 161.098C96.1147 161.242 96.0187 161.29 95.8627 161.242C95.6347 161.17 95.3407 161.14 94.9807 161.152C94.3567 161.176 93.8407 161.41 93.4327 161.854C93.0247 162.286 92.8207 162.838 92.8207 163.51V168.766C92.8207 168.922 92.7427 169 92.5867 169H91.7767C91.6207 169 91.5427 168.922 91.5427 168.766V160.126C91.5427 159.97 91.6207 159.892 91.7767 159.892H92.5867C92.7427 159.892 92.8207 159.97 92.8207 160.126V161.134C92.8207 161.182 92.8267 161.212 92.8387 161.224C92.8627 161.224 92.8867 161.206 92.9107 161.17C93.1627 160.738 93.4807 160.402 93.8647 160.162C94.2607 159.922 94.7107 159.802 95.2147 159.802ZM105.047 160.126C105.047 159.97 105.125 159.892 105.281 159.892H106.091C106.247 159.892 106.325 159.97 106.325 160.126V168.766C106.325 168.922 106.247 169 106.091 169H105.281C105.125 169 105.047 168.922 105.047 168.766V168.082C105.047 168.046 105.035 168.022 105.011 168.01C104.987 167.998 104.963 168.01 104.939 168.046C104.423 168.766 103.631 169.126 102.563 169.126C101.987 169.126 101.453 169.012 100.961 168.784C100.481 168.544 100.097 168.202 99.8093 167.758C99.5333 167.314 99.3953 166.78 99.3953 166.156V160.126C99.3953 159.97 99.4733 159.892 99.6293 159.892H100.439C100.595 159.892 100.673 159.97 100.673 160.126V165.778C100.673 166.462 100.865 167.008 101.249 167.416C101.633 167.812 102.155 168.01 102.815 168.01C103.499 168.01 104.039 167.806 104.435 167.398C104.843 166.99 105.047 166.45 105.047 165.778V160.126ZM114.068 169.144C113.204 169.144 112.46 168.922 111.836 168.478C111.224 168.022 110.804 167.41 110.576 166.642C110.42 166.114 110.342 165.37 110.342 164.41C110.342 163.546 110.42 162.814 110.576 162.214C110.792 161.47 111.212 160.876 111.836 160.432C112.46 159.976 113.204 159.748 114.068 159.748C114.944 159.748 115.7 159.97 116.336 160.414C116.984 160.858 117.404 161.41 117.596 162.07C117.644 162.238 117.68 162.4 117.704 162.556V162.592C117.704 162.724 117.632 162.802 117.488 162.826L116.696 162.916H116.642C116.534 162.916 116.462 162.85 116.426 162.718C116.426 162.67 116.414 162.598 116.39 162.502C116.282 162.046 116.018 161.662 115.598 161.35C115.178 161.026 114.668 160.864 114.068 160.864C113.468 160.864 112.964 161.026 112.556 161.35C112.16 161.662 111.902 162.082 111.782 162.61C111.674 163.066 111.62 163.672 111.62 164.428C111.62 165.22 111.674 165.832 111.782 166.264C111.902 166.804 112.16 167.236 112.556 167.56C112.964 167.872 113.468 168.028 114.068 168.028C114.656 168.028 115.16 167.878 115.58 167.578C116.012 167.266 116.276 166.876 116.372 166.408C116.384 166.384 116.39 166.354 116.39 166.318L116.408 166.3C116.42 166.144 116.51 166.078 116.678 166.102L117.452 166.228C117.608 166.252 117.68 166.342 117.668 166.498L117.596 166.804C117.416 167.5 117.002 168.064 116.354 168.496C115.706 168.928 114.944 169.144 114.068 169.144ZM125.507 160.72C125.507 160.876 125.429 160.954 125.273 160.954H123.311C123.251 160.954 123.221 160.984 123.221 161.044V166.3C123.221 166.876 123.347 167.284 123.599 167.524C123.863 167.752 124.271 167.866 124.823 167.866H125.219C125.375 167.866 125.453 167.944 125.453 168.1V168.73C125.453 168.886 125.375 168.97 125.219 168.982H124.607C123.743 168.982 123.089 168.82 122.645 168.496C122.201 168.172 121.979 167.572 121.979 166.696V161.044C121.979 160.984 121.949 160.954 121.889 160.954H120.863C120.707 160.954 120.629 160.876 120.629 160.72V160.126C120.629 159.97 120.707 159.892 120.863 159.892H121.889C121.949 159.892 121.979 159.862 121.979 159.802V157.786C121.979 157.63 122.057 157.552 122.213 157.552H122.987C123.143 157.552 123.221 157.63 123.221 157.786V159.802C123.221 159.862 123.251 159.892 123.311 159.892H125.273C125.429 159.892 125.507 159.97 125.507 160.126V160.72ZM134.926 160.126C134.926 159.97 135.004 159.892 135.16 159.892H135.97C136.126 159.892 136.204 159.97 136.204 160.126V168.766C136.204 168.922 136.126 169 135.97 169H135.16C135.004 169 134.926 168.922 134.926 168.766V168.082C134.926 168.046 134.914 168.022 134.89 168.01C134.866 167.998 134.842 168.01 134.818 168.046C134.302 168.766 133.51 169.126 132.442 169.126C131.866 169.126 131.332 169.012 130.84 168.784C130.36 168.544 129.976 168.202 129.688 167.758C129.412 167.314 129.274 166.78 129.274 166.156V160.126C129.274 159.97 129.352 159.892 129.508 159.892H130.318C130.474 159.892 130.552 159.97 130.552 160.126V165.778C130.552 166.462 130.744 167.008 131.128 167.416C131.512 167.812 132.034 168.01 132.694 168.01C133.378 168.01 133.918 167.806 134.314 167.398C134.722 166.99 134.926 166.45 134.926 165.778V160.126ZM144.18 159.802C144.576 159.802 144.906 159.874 145.17 160.018C145.29 160.066 145.332 160.162 145.296 160.306L145.116 161.098C145.08 161.242 144.984 161.29 144.828 161.242C144.6 161.17 144.306 161.14 143.946 161.152C143.322 161.176 142.806 161.41 142.398 161.854C141.99 162.286 141.786 162.838 141.786 163.51V168.766C141.786 168.922 141.708 169 141.552 169H140.742C140.586 169 140.508 168.922 140.508 168.766V160.126C140.508 159.97 140.586 159.892 140.742 159.892H141.552C141.708 159.892 141.786 159.97 141.786 160.126V161.134C141.786 161.182 141.792 161.212 141.804 161.224C141.828 161.224 141.852 161.206 141.876 161.17C142.128 160.738 142.446 160.402 142.83 160.162C143.226 159.922 143.676 159.802 144.18 159.802ZM151.963 168.046C152.503 168.034 152.965 167.914 153.349 167.686C153.745 167.446 154.051 167.116 154.267 166.696C154.291 166.636 154.333 166.594 154.393 166.57C154.453 166.546 154.513 166.552 154.573 166.588L155.095 166.876C155.239 166.96 155.275 167.062 155.203 167.182C154.915 167.782 154.483 168.262 153.907 168.622C153.331 168.97 152.647 169.144 151.855 169.144C151.015 169.144 150.307 168.946 149.731 168.55C149.155 168.154 148.741 167.602 148.489 166.894C148.261 166.294 148.147 165.466 148.147 164.41C148.147 163.894 148.153 163.486 148.165 163.186C148.189 162.874 148.237 162.586 148.309 162.322C148.513 161.542 148.921 160.918 149.533 160.45C150.157 159.982 150.907 159.748 151.783 159.748C152.827 159.748 153.643 160.018 154.231 160.558C154.831 161.098 155.215 161.86 155.383 162.844C155.455 163.228 155.491 163.828 155.491 164.644C155.491 164.8 155.413 164.878 155.257 164.878H149.497C149.437 164.878 149.407 164.908 149.407 164.968C149.407 165.568 149.443 166.006 149.515 166.282C149.647 166.822 149.923 167.254 150.343 167.578C150.775 167.89 151.315 168.046 151.963 168.046ZM151.783 160.864C151.183 160.864 150.691 161.02 150.307 161.332C149.923 161.632 149.671 162.04 149.551 162.556C149.479 162.796 149.431 163.204 149.407 163.78C149.407 163.84 149.437 163.87 149.497 163.87H154.123C154.183 163.87 154.213 163.84 154.213 163.78C154.189 163.252 154.153 162.868 154.105 162.628C153.973 162.088 153.703 161.662 153.295 161.35C152.899 161.026 152.395 160.864 151.783 160.864Z" fill="#34224B"/>
<path d="M188.798 169C188.654 169 188.564 168.934 188.528 168.802L185.612 160.162C185.6 160.138 185.594 160.108 185.594 160.072C185.594 160.024 185.612 159.982 185.648 159.946C185.696 159.91 185.75 159.892 185.81 159.892H186.728C186.86 159.892 186.944 159.958 186.98 160.09L189.23 167.092C189.242 167.14 189.26 167.164 189.284 167.164C189.308 167.164 189.326 167.14 189.338 167.092L191.588 160.09C191.624 159.958 191.708 159.892 191.84 159.892L192.758 159.91C192.842 159.91 192.896 159.934 192.92 159.982C192.956 160.03 192.962 160.096 192.938 160.18L190.04 168.802C190.004 168.934 189.914 169 189.77 169H188.798ZM197.197 158.254C196.909 158.254 196.675 158.17 196.495 158.002C196.315 157.822 196.225 157.594 196.225 157.318C196.225 157.042 196.315 156.82 196.495 156.652C196.675 156.484 196.909 156.4 197.197 156.4C197.485 156.4 197.719 156.484 197.899 156.652C198.079 156.82 198.169 157.042 198.169 157.318C198.169 157.594 198.079 157.822 197.899 158.002C197.719 158.17 197.485 158.254 197.197 158.254ZM196.801 169C196.645 169 196.567 168.922 196.567 168.766V160.126C196.567 159.97 196.645 159.892 196.801 159.892H197.611C197.767 159.892 197.845 159.97 197.845 160.126V168.766C197.845 168.922 197.767 169 197.611 169H196.801ZM205.263 169.09C204.591 169.09 203.991 168.982 203.463 168.766C202.947 168.55 202.545 168.262 202.257 167.902C201.981 167.542 201.843 167.14 201.843 166.696V166.534C201.843 166.378 201.921 166.3 202.077 166.3H202.851C202.923 166.3 202.977 166.318 203.013 166.354C203.061 166.378 203.085 166.414 203.085 166.462V166.624C203.085 167.02 203.289 167.368 203.697 167.668C204.105 167.956 204.621 168.1 205.245 168.1C205.869 168.1 206.373 167.962 206.757 167.686C207.141 167.398 207.333 167.038 207.333 166.606C207.333 166.306 207.237 166.06 207.045 165.868C206.853 165.676 206.619 165.526 206.343 165.418C206.067 165.31 205.653 165.172 205.101 165.004C204.429 164.812 203.877 164.62 203.445 164.428C203.013 164.236 202.647 163.972 202.347 163.636C202.047 163.288 201.897 162.85 201.897 162.322C201.897 161.554 202.197 160.942 202.797 160.486C203.409 160.03 204.207 159.802 205.191 159.802C205.851 159.802 206.433 159.91 206.937 160.126C207.453 160.342 207.849 160.642 208.125 161.026C208.401 161.398 208.539 161.818 208.539 162.286C208.539 162.442 208.461 162.52 208.305 162.52H207.567C207.411 162.52 207.333 162.478 207.333 162.394V162.286C207.333 161.878 207.135 161.536 206.739 161.26C206.355 160.984 205.833 160.846 205.173 160.846C204.561 160.846 204.069 160.972 203.697 161.224C203.325 161.464 203.139 161.8 203.139 162.232C203.139 162.64 203.313 162.952 203.661 163.168C204.021 163.384 204.579 163.6 205.335 163.816C206.031 164.008 206.595 164.194 207.027 164.374C207.459 164.554 207.831 164.818 208.143 165.166C208.455 165.514 208.611 165.964 208.611 166.516C208.611 167.296 208.305 167.92 207.693 168.388C207.093 168.856 206.283 169.09 205.263 169.09ZM217.907 160.126C217.907 159.97 217.985 159.892 218.141 159.892H218.951C219.107 159.892 219.185 159.97 219.185 160.126V168.766C219.185 168.922 219.107 169 218.951 169H218.141C217.985 169 217.907 168.922 217.907 168.766V168.082C217.907 168.046 217.895 168.022 217.871 168.01C217.847 167.998 217.823 168.01 217.799 168.046C217.283 168.766 216.491 169.126 215.423 169.126C214.847 169.126 214.313 169.012 213.821 168.784C213.341 168.544 212.957 168.202 212.669 167.758C212.393 167.314 212.255 166.78 212.255 166.156V160.126C212.255 159.97 212.333 159.892 212.489 159.892H213.299C213.455 159.892 213.533 159.97 213.533 160.126V165.778C213.533 166.462 213.725 167.008 214.109 167.416C214.493 167.812 215.015 168.01 215.675 168.01C216.359 168.01 216.899 167.806 217.295 167.398C217.703 166.99 217.907 166.45 217.907 165.778V160.126ZM226.639 159.748C227.719 159.748 228.553 160.024 229.141 160.576C229.741 161.128 230.041 161.86 230.041 162.772V168.766C230.041 168.922 229.963 169 229.807 169H228.997C228.841 169 228.763 168.922 228.763 168.766V168.118C228.763 168.082 228.751 168.058 228.727 168.046C228.703 168.034 228.679 168.046 228.655 168.082C228.331 168.43 227.923 168.694 227.431 168.874C226.951 169.054 226.423 169.144 225.847 169.144C225.007 169.144 224.299 168.928 223.723 168.496C223.159 168.064 222.877 167.404 222.877 166.516C222.877 165.616 223.201 164.908 223.849 164.392C224.509 163.864 225.421 163.6 226.585 163.6H228.673C228.733 163.6 228.763 163.57 228.763 163.51V162.844C228.763 162.232 228.589 161.752 228.241 161.404C227.905 161.044 227.377 160.864 226.657 160.864C226.093 160.864 225.631 160.972 225.271 161.188C224.911 161.404 224.683 161.704 224.587 162.088C224.551 162.232 224.461 162.292 224.317 162.268L223.435 162.16C223.279 162.136 223.207 162.07 223.219 161.962C223.339 161.302 223.705 160.768 224.317 160.36C224.941 159.952 225.715 159.748 226.639 159.748ZM226.135 168.046C226.843 168.046 227.455 167.872 227.971 167.524C228.499 167.164 228.763 166.684 228.763 166.084V164.698C228.763 164.638 228.733 164.608 228.673 164.608H226.783C225.991 164.608 225.355 164.77 224.875 165.094C224.395 165.418 224.155 165.868 224.155 166.444C224.155 166.972 224.341 167.374 224.713 167.65C225.085 167.914 225.559 168.046 226.135 168.046ZM234.356 169C234.2 169 234.122 168.922 234.122 168.766V156.634C234.122 156.478 234.2 156.4 234.356 156.4H235.166C235.322 156.4 235.4 156.478 235.4 156.634V168.766C235.4 168.922 235.322 169 235.166 169H234.356ZM240.52 158.254C240.232 158.254 239.998 158.17 239.818 158.002C239.638 157.822 239.548 157.594 239.548 157.318C239.548 157.042 239.638 156.82 239.818 156.652C239.998 156.484 240.232 156.4 240.52 156.4C240.808 156.4 241.042 156.484 241.222 156.652C241.402 156.82 241.492 157.042 241.492 157.318C241.492 157.594 241.402 157.822 241.222 158.002C241.042 158.17 240.808 158.254 240.52 158.254ZM240.124 169C239.968 169 239.89 168.922 239.89 168.766V160.126C239.89 159.97 239.968 159.892 240.124 159.892H240.934C241.09 159.892 241.168 159.97 241.168 160.126V168.766C241.168 168.922 241.09 169 240.934 169H240.124ZM245.004 169C244.848 169 244.77 168.922 244.77 168.766V167.992C244.77 167.884 244.806 167.788 244.878 167.704L249.936 161.17C249.96 161.146 249.966 161.122 249.954 161.098C249.942 161.074 249.918 161.062 249.882 161.062H245.076C244.92 161.062 244.842 160.984 244.842 160.828V160.126C244.842 159.97 244.92 159.892 245.076 159.892H251.286C251.442 159.892 251.52 159.97 251.52 160.126V160.9C251.52 160.996 251.484 161.092 251.412 161.188L246.3 167.722C246.276 167.746 246.27 167.77 246.282 167.794C246.294 167.818 246.318 167.83 246.354 167.83H251.286C251.442 167.83 251.52 167.908 251.52 168.064V168.766C251.52 168.922 251.442 169 251.286 169H245.004ZM258.6 168.046C259.14 168.034 259.602 167.914 259.986 167.686C260.382 167.446 260.688 167.116 260.904 166.696C260.928 166.636 260.97 166.594 261.03 166.57C261.09 166.546 261.15 166.552 261.21 166.588L261.732 166.876C261.876 166.96 261.912 167.062 261.84 167.182C261.552 167.782 261.12 168.262 260.544 168.622C259.968 168.97 259.284 169.144 258.492 169.144C257.652 169.144 256.944 168.946 256.368 168.55C255.792 168.154 255.378 167.602 255.126 166.894C254.898 166.294 254.784 165.466 254.784 164.41C254.784 163.894 254.79 163.486 254.802 163.186C254.826 162.874 254.874 162.586 254.946 162.322C255.15 161.542 255.558 160.918 256.17 160.45C256.794 159.982 257.544 159.748 258.42 159.748C259.464 159.748 260.28 160.018 260.868 160.558C261.468 161.098 261.852 161.86 262.02 162.844C262.092 163.228 262.128 163.828 262.128 164.644C262.128 164.8 262.05 164.878 261.894 164.878H256.134C256.074 164.878 256.044 164.908 256.044 164.968C256.044 165.568 256.08 166.006 256.152 166.282C256.284 166.822 256.56 167.254 256.98 167.578C257.412 167.89 257.952 168.046 258.6 168.046ZM258.42 160.864C257.82 160.864 257.328 161.02 256.944 161.332C256.56 161.632 256.308 162.04 256.188 162.556C256.116 162.796 256.068 163.204 256.044 163.78C256.044 163.84 256.074 163.87 256.134 163.87H260.76C260.82 163.87 260.85 163.84 260.85 163.78C260.826 163.252 260.79 162.868 260.742 162.628C260.61 162.088 260.34 161.662 259.932 161.35C259.536 161.026 259.032 160.864 258.42 160.864ZM269.781 159.802C270.177 159.802 270.507 159.874 270.771 160.018C270.891 160.066 270.933 160.162 270.897 160.306L270.717 161.098C270.681 161.242 270.585 161.29 270.429 161.242C270.201 161.17 269.907 161.14 269.547 161.152C268.923 161.176 268.407 161.41 267.999 161.854C267.591 162.286 267.387 162.838 267.387 163.51V168.766C267.387 168.922 267.309 169 267.153 169H266.343C266.187 169 266.109 168.922 266.109 168.766V160.126C266.109 159.97 266.187 159.892 266.343 159.892H267.153C267.309 159.892 267.387 159.97 267.387 160.126V161.134C267.387 161.182 267.393 161.212 267.405 161.224C267.429 161.224 267.453 161.206 267.477 161.17C267.729 160.738 268.047 160.402 268.431 160.162C268.827 159.922 269.277 159.802 269.781 159.802Z" fill="#34224B"/>
<defs>
<filter id="filter0_d" x="3.05603" y="42.0481" width="282.721" height="111.104" filterUnits="userSpaceOnUse" color-interpolation-filters="sRGB">
<feFlood flood-opacity="0" result="BackgroundImageFix"/>
<feColorMatrix in="SourceAlpha" type="matrix" values="0 0 0 0 0 0 0 0 0 0 0 0 0 0 0 0 0 0 127 0"/>
<feOffset dy="4"/>
<feGaussianBlur stdDeviation="2"/>
<feColorMatrix type="matrix" values="0 0 0 0 0 0 0 0 0 0 0 0 0 0 0 0 0 0 0.34 0"/>
<feBlend mode="normal" in2="BackgroundImageFix" result="effect1_dropShadow"/>
<feBlend mode="normal" in="SourceGraphic" in2="effect1_dropShadow" result="shape"/>
</filter>
</defs>
</svg>
