<svg width="330" height="315" viewBox="0 0 330 315" fill="none" xmlns="http://www.w3.org/2000/svg">
    <rect x="124" y="30" width="81" height="36" rx="18" fill="#1F3DA7"/>
    <rect x="126" y="96" width="77" height="32" rx="16" stroke="#1F3DA7" stroke-width="4"/>
    <rect x="126" y="161" width="77" height="32" rx="16" stroke="#1F3DA7" stroke-width="4"/>
    <rect x="124" y="223" width="81" height="36" rx="18" fill="#1F3DA7"/>
    <line x1="164.5" y1="65" x2="164.5" y2="94" stroke="#1F3DA7" stroke-width="3"/>
    <line x1="164.5" y1="130" x2="164.5" y2="159" stroke="#1F3DA7" stroke-width="3"/>
    <line x1="164.5" y1="194" x2="164.5" y2="223" stroke="#1F3DA7" stroke-width="3"/>
    <path d="M142.512 54C142.392 54 142.284 53.958 142.188 53.874C142.104 53.778 142.062 53.67 142.062 53.55V41.67C142.062 41.538 142.104 41.43 142.188 41.346C142.284 41.262 142.392 41.22 142.512 41.22H144.816C144.948 41.22 145.056 41.262 145.14 41.346C145.224 41.43 145.266 41.538 145.266 41.67V45.684C145.986 44.868 146.934 44.46 148.11 44.46C148.806 44.46 149.424 44.616 149.964 44.928C150.516 45.24 150.948 45.702 151.26 46.314C151.572 46.926 151.728 47.664 151.728 48.528V53.55C151.728 53.67 151.686 53.778 151.602 53.874C151.518 53.958 151.41 54 151.278 54H148.956C148.836 54 148.728 53.958 148.632 53.874C148.548 53.778 148.506 53.67 148.506 53.55V48.636C148.506 48.072 148.368 47.64 148.092 47.34C147.828 47.028 147.438 46.872 146.922 46.872C146.406 46.872 145.998 47.028 145.698 47.34C145.41 47.64 145.266 48.072 145.266 48.636V53.55C145.266 53.682 145.224 53.79 145.14 53.874C145.056 53.958 144.948 54 144.816 54H142.512ZM158.089 54.18C156.649 54.18 155.515 53.79 154.687 53.01C153.859 52.23 153.427 51.096 153.391 49.608V48.978C153.439 47.562 153.877 46.458 154.705 45.666C155.545 44.862 156.667 44.46 158.071 44.46C159.091 44.46 159.949 44.67 160.645 45.09C161.353 45.498 161.881 46.062 162.229 46.782C162.589 47.502 162.769 48.33 162.769 49.266V49.698C162.769 49.818 162.727 49.926 162.643 50.022C162.559 50.106 162.451 50.148 162.319 50.148H156.559V50.274C156.583 50.838 156.721 51.294 156.973 51.642C157.225 51.99 157.591 52.164 158.071 52.164C158.371 52.164 158.617 52.104 158.809 51.984C159.001 51.852 159.175 51.696 159.331 51.516C159.439 51.384 159.523 51.306 159.583 51.282C159.655 51.246 159.763 51.228 159.907 51.228H162.139C162.247 51.228 162.337 51.264 162.409 51.336C162.493 51.396 162.535 51.48 162.535 51.588C162.535 51.9 162.355 52.26 161.995 52.668C161.647 53.076 161.137 53.43 160.465 53.73C159.793 54.03 159.001 54.18 158.089 54.18ZM159.601 48.366V48.33C159.601 47.742 159.463 47.28 159.187 46.944C158.923 46.596 158.551 46.422 158.071 46.422C157.603 46.422 157.231 46.596 156.955 46.944C156.691 47.28 156.559 47.742 156.559 48.33V48.366H159.601ZM167.265 54.18C166.629 54.18 166.047 54.06 165.519 53.82C165.003 53.568 164.595 53.232 164.295 52.812C164.007 52.38 163.863 51.906 163.863 51.39C163.863 50.562 164.199 49.896 164.871 49.392C165.555 48.888 166.491 48.54 167.679 48.348L169.929 48.006V47.754C169.929 47.298 169.833 46.962 169.641 46.746C169.449 46.53 169.125 46.422 168.669 46.422C168.393 46.422 168.165 46.47 167.985 46.566C167.805 46.662 167.619 46.794 167.427 46.962C167.259 47.106 167.133 47.202 167.049 47.25C167.013 47.346 166.947 47.394 166.851 47.394H164.889C164.769 47.394 164.667 47.358 164.583 47.286C164.511 47.202 164.481 47.106 164.493 46.998C164.505 46.674 164.661 46.314 164.961 45.918C165.273 45.522 165.741 45.18 166.365 44.892C167.001 44.604 167.781 44.46 168.705 44.46C170.181 44.46 171.273 44.79 171.981 45.45C172.689 46.098 173.043 46.974 173.043 48.078V53.55C173.043 53.67 173.001 53.778 172.917 53.874C172.833 53.958 172.725 54 172.593 54H170.505C170.385 54 170.277 53.958 170.181 53.874C170.097 53.778 170.055 53.67 170.055 53.55V52.92C169.791 53.292 169.419 53.598 168.939 53.838C168.471 54.066 167.913 54.18 167.265 54.18ZM168.111 52.128C168.663 52.128 169.107 51.948 169.443 51.588C169.791 51.228 169.965 50.7 169.965 50.004V49.752L168.435 50.022C167.355 50.214 166.815 50.592 166.815 51.156C166.815 51.456 166.941 51.696 167.193 51.876C167.445 52.044 167.751 52.128 168.111 52.128ZM178.566 54.18C177.39 54.18 176.472 53.814 175.812 53.082C175.164 52.338 174.81 51.294 174.75 49.95L174.732 49.32L174.75 48.672C174.798 47.376 175.152 46.35 175.812 45.594C176.484 44.838 177.402 44.46 178.566 44.46C179.658 44.46 180.54 44.814 181.212 45.522V41.67C181.212 41.538 181.254 41.43 181.338 41.346C181.422 41.262 181.53 41.22 181.662 41.22H183.858C183.99 41.22 184.098 41.262 184.182 41.346C184.266 41.43 184.308 41.538 184.308 41.67V53.55C184.308 53.67 184.266 53.778 184.182 53.874C184.098 53.958 183.99 54 183.858 54H181.824C181.704 54 181.596 53.958 181.5 53.874C181.416 53.778 181.374 53.67 181.374 53.55V52.974C180.714 53.778 179.778 54.18 178.566 54.18ZM179.556 51.768C180.096 51.768 180.498 51.6 180.762 51.264C181.026 50.916 181.176 50.472 181.212 49.932C181.224 49.776 181.23 49.548 181.23 49.248C181.23 48.96 181.224 48.738 181.212 48.582C181.188 48.09 181.038 47.682 180.762 47.358C180.486 47.034 180.084 46.872 179.556 46.872C178.992 46.872 178.584 47.04 178.332 47.376C178.092 47.712 177.954 48.174 177.918 48.762C177.906 48.882 177.9 49.068 177.9 49.32C177.9 49.572 177.906 49.758 177.918 49.878C177.954 50.466 178.092 50.928 178.332 51.264C178.584 51.6 178.992 51.768 179.556 51.768Z" fill="white"/>
    <path d="M155.85 247C153.366 247 152.124 245.818 152.124 243.454V239.998H150.72C150.588 239.998 150.474 239.956 150.378 239.872C150.294 239.788 150.252 239.68 150.252 239.548V238.09C150.252 237.958 150.294 237.85 150.378 237.766C150.474 237.682 150.588 237.64 150.72 237.64H152.124V234.67C152.124 234.538 152.166 234.43 152.25 234.346C152.346 234.262 152.454 234.22 152.574 234.22H154.662C154.794 234.22 154.902 234.262 154.986 234.346C155.07 234.43 155.112 234.538 155.112 234.67V237.64H157.362C157.494 237.64 157.602 237.682 157.686 237.766C157.782 237.85 157.83 237.958 157.83 238.09V239.548C157.83 239.68 157.782 239.788 157.686 239.872C157.602 239.956 157.494 239.998 157.362 239.998H155.112V243.202C155.112 244.09 155.454 244.534 156.138 244.534H157.524C157.656 244.534 157.764 244.576 157.848 244.66C157.932 244.744 157.974 244.852 157.974 244.984V246.55C157.974 246.67 157.932 246.778 157.848 246.874C157.764 246.958 157.656 247 157.524 247H155.85ZM162.272 247.18C161.636 247.18 161.054 247.06 160.526 246.82C160.01 246.568 159.602 246.232 159.302 245.812C159.014 245.38 158.87 244.906 158.87 244.39C158.87 243.562 159.206 242.896 159.878 242.392C160.562 241.888 161.498 241.54 162.686 241.348L164.936 241.006V240.754C164.936 240.298 164.84 239.962 164.648 239.746C164.456 239.53 164.132 239.422 163.676 239.422C163.4 239.422 163.172 239.47 162.992 239.566C162.812 239.662 162.626 239.794 162.434 239.962C162.266 240.106 162.14 240.202 162.056 240.25C162.02 240.346 161.954 240.394 161.858 240.394H159.896C159.776 240.394 159.674 240.358 159.59 240.286C159.518 240.202 159.488 240.106 159.5 239.998C159.512 239.674 159.668 239.314 159.968 238.918C160.28 238.522 160.748 238.18 161.372 237.892C162.008 237.604 162.788 237.46 163.712 237.46C165.188 237.46 166.28 237.79 166.988 238.45C167.696 239.098 168.05 239.974 168.05 241.078V246.55C168.05 246.67 168.008 246.778 167.924 246.874C167.84 246.958 167.732 247 167.6 247H165.512C165.392 247 165.284 246.958 165.188 246.874C165.104 246.778 165.062 246.67 165.062 246.55V245.92C164.798 246.292 164.426 246.598 163.946 246.838C163.478 247.066 162.92 247.18 162.272 247.18ZM163.118 245.128C163.67 245.128 164.114 244.948 164.45 244.588C164.798 244.228 164.972 243.7 164.972 243.004V242.752L163.442 243.022C162.362 243.214 161.822 243.592 161.822 244.156C161.822 244.456 161.948 244.696 162.2 244.876C162.452 245.044 162.758 245.128 163.118 245.128ZM170.514 236.29C170.382 236.29 170.274 236.248 170.19 236.164C170.106 236.08 170.064 235.972 170.064 235.84V234.22C170.064 234.088 170.106 233.98 170.19 233.896C170.274 233.812 170.382 233.77 170.514 233.77H172.674C172.806 233.77 172.914 233.812 172.998 233.896C173.082 233.98 173.124 234.088 173.124 234.22V235.84C173.124 235.972 173.082 236.08 172.998 236.164C172.914 236.248 172.806 236.29 172.674 236.29H170.514ZM170.532 247C170.4 247 170.292 246.958 170.208 246.874C170.124 246.79 170.082 246.682 170.082 246.55V238.09C170.082 237.958 170.124 237.85 170.208 237.766C170.292 237.682 170.4 237.64 170.532 237.64H172.656C172.788 237.64 172.896 237.682 172.98 237.766C173.064 237.85 173.106 237.958 173.106 238.09V246.55C173.106 246.67 173.064 246.778 172.98 246.874C172.896 246.958 172.788 247 172.656 247H170.532ZM175.682 247C175.562 247 175.454 246.958 175.358 246.874C175.274 246.778 175.232 246.67 175.232 246.55V234.67C175.232 234.538 175.274 234.43 175.358 234.346C175.454 234.262 175.562 234.22 175.682 234.22H177.806C177.938 234.22 178.046 234.262 178.13 234.346C178.214 234.43 178.256 234.538 178.256 234.67V246.55C178.256 246.682 178.214 246.79 178.13 246.874C178.046 246.958 177.938 247 177.806 247H175.682Z" fill="white"/>
</svg>

