<svg width="203" height="47" viewBox="0 0 203 47" fill="none" xmlns="http://www.w3.org/2000/svg">
    <path d="M71.7344 31V13.9375H76.7734C78.2812 13.9375 79.6172 14.2734 80.7812 14.9453C81.9531 15.6172 82.8594 16.5703 83.5 17.8047C84.1406 19.0391 84.4609 20.4531 84.4609 22.0469V22.9023C84.4609 24.5195 84.1367 25.9414 83.4883 27.168C82.8477 28.3945 81.9297 29.3398 80.7344 30.0039C79.5469 30.668 78.1836 31 76.6445 31H71.7344ZM74.6992 16.3281V28.6328H76.6328C78.1875 28.6328 79.3789 28.1484 80.207 27.1797C81.043 26.2031 81.4688 24.8047 81.4844 22.9844V22.0352C81.4844 20.1836 81.082 18.7695 80.2773 17.793C79.4727 16.8164 78.3047 16.3281 76.7734 16.3281H74.6992ZM98.252 26.6055C98.252 25.8555 97.9864 25.2773 97.4552 24.8711C96.9317 24.4648 95.9825 24.0547 94.6075 23.6406C93.2325 23.2266 92.1388 22.7656 91.3263 22.2578C89.7716 21.2812 88.9942 20.0078 88.9942 18.4375C88.9942 17.0625 89.5528 15.9297 90.67 15.0391C91.795 14.1484 93.252 13.7031 95.0411 13.7031C96.2286 13.7031 97.2872 13.9219 98.2169 14.3594C99.1466 14.7969 99.877 15.4219 100.408 16.2344C100.94 17.0391 101.205 17.9336 101.205 18.918H98.252C98.252 18.0273 97.9708 17.332 97.4083 16.832C96.8536 16.3242 96.0567 16.0703 95.0177 16.0703C94.0489 16.0703 93.295 16.2773 92.7559 16.6914C92.2247 17.1055 91.9591 17.6836 91.9591 18.4258C91.9591 19.0508 92.2481 19.5742 92.8263 19.9961C93.4044 20.4102 94.3575 20.8164 95.6856 21.2148C97.0138 21.6055 98.0802 22.0547 98.8848 22.5625C99.6895 23.0625 100.279 23.6406 100.654 24.2969C101.029 24.9453 101.217 25.707 101.217 26.582C101.217 28.0039 100.67 29.1367 99.5763 29.9805C98.4903 30.8164 97.0138 31.2344 95.1466 31.2344C93.9122 31.2344 92.7755 31.0078 91.7364 30.5547C90.7052 30.0938 89.9005 29.4609 89.3223 28.6562C88.752 27.8516 88.4669 26.9141 88.4669 25.8438H91.4317C91.4317 26.8125 91.752 27.5625 92.3927 28.0938C93.0333 28.625 93.9513 28.8906 95.1466 28.8906C96.1778 28.8906 96.9513 28.6836 97.4669 28.2695C97.9903 27.8477 98.252 27.293 98.252 26.6055ZM119.647 27.2852L123.983 13.9375H127.24L121.1 31H118.229L112.112 13.9375H115.358L119.647 27.2852ZM134.223 31H131.27V13.9375H134.223V31ZM148.705 26.6055C148.705 25.8555 148.44 25.2773 147.909 24.8711C147.385 24.4648 146.436 24.0547 145.061 23.6406C143.686 23.2266 142.592 22.7656 141.78 22.2578C140.225 21.2812 139.448 20.0078 139.448 18.4375C139.448 17.0625 140.006 15.9297 141.123 15.0391C142.248 14.1484 143.705 13.7031 145.495 13.7031C146.682 13.7031 147.741 13.9219 148.67 14.3594C149.6 14.7969 150.33 15.4219 150.862 16.2344C151.393 17.0391 151.659 17.9336 151.659 18.918H148.705C148.705 18.0273 148.424 17.332 147.862 16.832C147.307 16.3242 146.51 16.0703 145.471 16.0703C144.502 16.0703 143.748 16.2773 143.209 16.6914C142.678 17.1055 142.412 17.6836 142.412 18.4258C142.412 19.0508 142.702 19.5742 143.28 19.9961C143.858 20.4102 144.811 20.8164 146.139 21.2148C147.467 21.6055 148.534 22.0547 149.338 22.5625C150.143 23.0625 150.733 23.6406 151.108 24.2969C151.483 24.9453 151.67 25.707 151.67 26.582C151.67 28.0039 151.123 29.1367 150.03 29.9805C148.944 30.8164 147.467 31.2344 145.6 31.2344C144.366 31.2344 143.229 31.0078 142.19 30.5547C141.159 30.0938 140.354 29.4609 139.776 28.6562C139.205 27.8516 138.92 26.9141 138.92 25.8438H141.885C141.885 26.8125 142.205 27.5625 142.846 28.0938C143.487 28.625 144.405 28.8906 145.6 28.8906C146.631 28.8906 147.405 28.6836 147.92 28.2695C148.444 27.8477 148.705 27.293 148.705 26.6055ZM168.672 13.9375V25.3398C168.672 27.1523 168.09 28.5898 166.926 29.6523C165.77 30.707 164.227 31.2344 162.297 31.2344C160.344 31.2344 158.793 30.7148 157.645 29.6758C156.497 28.6289 155.922 27.1797 155.922 25.3281V13.9375H158.875V25.3516C158.875 26.4922 159.165 27.3633 159.743 27.9648C160.321 28.5664 161.172 28.8672 162.297 28.8672C164.579 28.8672 165.719 27.6641 165.719 25.2578V13.9375H168.672ZM183.061 27.0273H176.452L175.069 31H171.987L178.432 13.9375H181.092L187.549 31H184.456L183.061 27.0273ZM177.284 24.6367H182.229L179.756 17.5586L177.284 24.6367ZM194.38 28.6328H202.126V31H191.415V13.9375H194.38V28.6328Z" fill="#ED5B3B"/>
    <circle cx="20" cy="20" r="20" fill="#ED5B3B"/>
    <g filter="url(#filter0_d)">
        <circle cx="32" cy="24" r="14.5" stroke="#ED5B3B"/>
    </g>
    <defs>
        <filter id="filter0_d" x="13" y="9" width="38" height="38" filterUnits="userSpaceOnUse" color-interpolation-filters="sRGB">
            <feFlood flood-opacity="0" result="BackgroundImageFix"/>
            <feColorMatrix in="SourceAlpha" type="matrix" values="0 0 0 0 0 0 0 0 0 0 0 0 0 0 0 0 0 0 127 0"/>
            <feOffset dy="4"/>
            <feGaussianBlur stdDeviation="2"/>
            <feColorMatrix type="matrix" values="0 0 0 0 0 0 0 0 0 0 0 0 0 0 0 0 0 0 0.59 0"/>
            <feBlend mode="normal" in2="BackgroundImageFix" result="effect1_dropShadow"/>
            <feBlend mode="normal" in="SourceGraphic" in2="effect1_dropShadow" result="shape"/>
        </filter>
    </defs>
</svg>
