<svg width="318" height="261" viewBox="0 0 318 261" fill="none" xmlns="http://www.w3.org/2000/svg">
<line x1="277.5" y1="107" x2="277.5" y2="136" stroke="#1F3DA7" stroke-width="3"/>
<rect x="237" y="136" width="81" height="36" rx="18" fill="#1F3DA7"/>
<path d="M276.648 163C276.488 163 276.344 162.944 276.216 162.832C276.104 162.704 276.048 162.56 276.048 162.4V150.976L272.76 153.496C272.648 153.592 272.528 153.64 272.4 153.64C272.224 153.64 272.064 153.544 271.92 153.352L270.504 151.504C270.424 151.376 270.384 151.256 270.384 151.144C270.384 150.92 270.48 150.752 270.672 150.64L276.192 146.368C276.368 146.256 276.56 146.2 276.768 146.2H279.768C279.944 146.2 280.088 146.256 280.2 146.368C280.312 146.48 280.368 146.624 280.368 146.8V162.4C280.368 162.56 280.312 162.704 280.2 162.832C280.088 162.944 279.944 163 279.768 163H276.648Z" fill="white"/>
<rect x="237" y="72" width="81" height="36" rx="18" fill="#1F3DA7"/>
<path d="M271.608 99C271.432 99 271.28 98.944 271.152 98.832C271.04 98.72 270.984 98.576 270.984 98.4V96.696C270.984 96.216 271.184 95.824 271.584 95.52L274.08 93.072C275.536 91.952 276.64 91.08 277.392 90.456C278.144 89.832 278.712 89.264 279.096 88.752C279.48 88.24 279.672 87.752 279.672 87.288C279.672 86.024 279.048 85.392 277.8 85.392C277.144 85.392 276.64 85.592 276.288 85.992C275.936 86.376 275.704 86.864 275.592 87.456C275.496 87.824 275.224 88.008 274.776 88.008H271.776C271.632 88.008 271.512 87.96 271.416 87.864C271.32 87.768 271.272 87.648 271.272 87.504C271.304 86.48 271.584 85.544 272.112 84.696C272.656 83.832 273.416 83.152 274.392 82.656C275.384 82.144 276.52 81.888 277.8 81.888C279.144 81.888 280.296 82.104 281.256 82.536C282.216 82.968 282.944 83.576 283.44 84.36C283.936 85.144 284.184 86.056 284.184 87.096C284.184 88.216 283.832 89.24 283.128 90.168C282.44 91.08 281.384 92.072 279.96 93.144L277.752 95.376H283.92C284.096 95.376 284.24 95.432 284.352 95.544C284.48 95.656 284.544 95.8 284.544 95.976V98.4C284.544 98.576 284.48 98.72 284.352 98.832C284.24 98.944 284.096 99 283.92 99H271.608Z" fill="white"/>
<line x1="40.5" y1="107" x2="40.5" y2="136" stroke="#1F3DA7" stroke-width="3"/>
<rect y="136" width="81" height="36" rx="18" fill="#1F3DA7"/>
<path d="M39.648 163C39.488 163 39.344 162.944 39.216 162.832C39.104 162.704 39.048 162.56 39.048 162.4V150.976L35.76 153.496C35.648 153.592 35.528 153.64 35.4 153.64C35.224 153.64 35.064 153.544 34.92 153.352L33.504 151.504C33.424 151.376 33.384 151.256 33.384 151.144C33.384 150.92 33.48 150.752 33.672 150.64L39.192 146.368C39.368 146.256 39.56 146.2 39.768 146.2H42.768C42.944 146.2 43.088 146.256 43.2 146.368C43.312 146.48 43.368 146.624 43.368 146.8V162.4C43.368 162.56 43.312 162.704 43.2 162.832C43.088 162.944 42.944 163 42.768 163H39.648Z" fill="white"/>
<rect y="72" width="81" height="36" rx="18" fill="#1F3DA7"/>
<path d="M34.608 99C34.432 99 34.28 98.944 34.152 98.832C34.04 98.72 33.984 98.576 33.984 98.4V96.696C33.984 96.216 34.184 95.824 34.584 95.52L37.08 93.072C38.536 91.952 39.64 91.08 40.392 90.456C41.144 89.832 41.712 89.264 42.096 88.752C42.48 88.24 42.672 87.752 42.672 87.288C42.672 86.024 42.048 85.392 40.8 85.392C40.144 85.392 39.64 85.592 39.288 85.992C38.936 86.376 38.704 86.864 38.592 87.456C38.496 87.824 38.224 88.008 37.776 88.008H34.776C34.632 88.008 34.512 87.96 34.416 87.864C34.32 87.768 34.272 87.648 34.272 87.504C34.304 86.48 34.584 85.544 35.112 84.696C35.656 83.832 36.416 83.152 37.392 82.656C38.384 82.144 39.52 81.888 40.8 81.888C42.144 81.888 43.296 82.104 44.256 82.536C45.216 82.968 45.944 83.576 46.44 84.36C46.936 85.144 47.184 86.056 47.184 87.096C47.184 88.216 46.832 89.24 46.128 90.168C45.44 91.08 44.384 92.072 42.96 93.144L40.752 95.376H46.92C47.096 95.376 47.24 95.432 47.352 95.544C47.48 95.656 47.544 95.8 47.544 95.976V98.4C47.544 98.576 47.48 98.72 47.352 98.832C47.24 98.944 47.096 99 46.92 99H34.608Z" fill="white"/>
<rect x="121" y="13" width="81" height="36" rx="18" fill="#1F3DA7"/>
<path d="M161.8 40.24C160.248 40.24 158.944 40 157.888 39.52C156.848 39.04 156.072 38.448 155.56 37.744C155.064 37.024 154.8 36.304 154.768 35.584C154.768 35.44 154.816 35.32 154.912 35.224C155.024 35.128 155.152 35.08 155.296 35.08H158.44C158.616 35.08 158.76 35.112 158.872 35.176C158.984 35.24 159.088 35.36 159.184 35.536C159.504 36.368 160.376 36.784 161.8 36.784C162.616 36.784 163.248 36.6 163.696 36.232C164.16 35.848 164.392 35.328 164.392 34.672C164.392 33.392 163.56 32.752 161.896 32.752H159.232C159.072 32.752 158.928 32.696 158.8 32.584C158.688 32.456 158.632 32.312 158.632 32.152V30.808C158.632 30.456 158.76 30.184 159.016 29.992L162.952 26.656H156.28C156.12 26.656 155.976 26.6 155.848 26.488C155.736 26.36 155.68 26.216 155.68 26.056V23.8C155.68 23.624 155.736 23.48 155.848 23.368C155.976 23.256 156.12 23.2 156.28 23.2H167.32C167.496 23.2 167.64 23.256 167.752 23.368C167.88 23.48 167.944 23.624 167.944 23.8V25.84C167.944 26.144 167.816 26.408 167.56 26.632L163.912 30.016L164.08 30.064C165.552 30.256 166.712 30.752 167.56 31.552C168.424 32.336 168.856 33.464 168.856 34.936C168.856 36.008 168.552 36.944 167.944 37.744C167.336 38.544 166.496 39.16 165.424 39.592C164.352 40.024 163.144 40.24 161.8 40.24Z" fill="white"/>
<path d="M42.08 72.2107C46.8868 53.8759 68.3787 20.6412 115.891 34.3802M115.891 34.3802L101.376 13.9226M115.891 34.3802L97.8556 52.2068" stroke="#1F3DA7" stroke-width="3"/>
<path d="M123.28 242C123.12 242 122.976 241.944 122.848 241.832C122.736 241.704 122.68 241.56 122.68 241.4V225.8C122.68 225.624 122.736 225.48 122.848 225.368C122.976 225.256 123.12 225.2 123.28 225.2H130C132.048 225.2 133.656 225.672 134.824 226.616C136.008 227.56 136.6 228.936 136.6 230.744C136.6 232.536 136.016 233.888 134.848 234.8C133.68 235.696 132.064 236.144 130 236.144H127.144V241.4C127.144 241.576 127.08 241.72 126.952 241.832C126.84 241.944 126.696 242 126.52 242H123.28ZM129.88 232.832C130.584 232.832 131.136 232.656 131.536 232.304C131.936 231.936 132.136 231.4 132.136 230.696C132.136 230.04 131.944 229.52 131.56 229.136C131.192 228.736 130.632 228.536 129.88 228.536H127.072V232.832H129.88ZM145.763 242.24C143.507 242.24 141.731 241.688 140.435 240.584C139.139 239.48 138.451 237.856 138.371 235.712C138.355 235.248 138.347 234.56 138.347 233.648C138.347 232.72 138.355 232.024 138.371 231.56C138.451 229.448 139.147 227.824 140.459 226.688C141.787 225.536 143.555 224.96 145.763 224.96C147.971 224.96 149.739 225.536 151.067 226.688C152.395 227.824 153.091 229.448 153.155 231.56C153.187 232.488 153.203 233.184 153.203 233.648C153.203 234.096 153.187 234.784 153.155 235.712C153.075 237.856 152.387 239.48 151.091 240.584C149.795 241.688 148.019 242.24 145.763 242.24ZM145.763 238.784C146.643 238.784 147.339 238.52 147.851 237.992C148.379 237.464 148.659 236.656 148.691 235.568C148.723 234.64 148.739 233.984 148.739 233.6C148.739 233.184 148.723 232.528 148.691 231.632C148.659 230.544 148.379 229.736 147.851 229.208C147.323 228.68 146.627 228.416 145.763 228.416C144.899 228.416 144.203 228.68 143.675 229.208C143.163 229.736 142.883 230.544 142.835 231.632C142.819 232.08 142.811 232.736 142.811 233.6C142.811 234.448 142.819 235.104 142.835 235.568C142.883 236.656 143.163 237.464 143.675 237.992C144.187 238.52 144.883 238.784 145.763 238.784ZM156.585 242C156.425 242 156.281 241.944 156.153 241.832C156.041 241.704 155.985 241.56 155.985 241.4V225.8C155.985 225.624 156.041 225.48 156.153 225.368C156.281 225.256 156.425 225.2 156.585 225.2H163.305C165.353 225.2 166.961 225.672 168.129 226.616C169.313 227.56 169.905 228.936 169.905 230.744C169.905 232.536 169.321 233.888 168.153 234.8C166.985 235.696 165.369 236.144 163.305 236.144H160.449V241.4C160.449 241.576 160.385 241.72 160.257 241.832C160.145 241.944 160.001 242 159.825 242H156.585ZM163.185 232.832C163.889 232.832 164.441 232.656 164.841 232.304C165.241 231.936 165.441 231.4 165.441 230.696C165.441 230.04 165.249 229.52 164.865 229.136C164.497 228.736 163.937 228.536 163.185 228.536H160.377V232.832H163.185Z" fill="#1F3DA7"/>
</svg>
