<svg width="343" height="195" viewBox="0 0 343 195" fill="none" xmlns="http://www.w3.org/2000/svg">
<line x1="302.5" y1="40" x2="302.5" y2="69" stroke="#1F3DA7" stroke-width="3"/>
<rect x="262" y="69" width="81" height="36" rx="18" fill="#1F3DA7"/>
<path d="M301.648 96C301.488 96 301.344 95.944 301.216 95.832C301.104 95.704 301.048 95.56 301.048 95.4V83.976L297.76 86.496C297.648 86.592 297.528 86.64 297.4 86.64C297.224 86.64 297.064 86.544 296.92 86.352L295.504 84.504C295.424 84.376 295.384 84.256 295.384 84.144C295.384 83.92 295.48 83.752 295.672 83.64L301.192 79.368C301.368 79.256 301.56 79.2 301.768 79.2H304.768C304.944 79.2 305.088 79.256 305.2 79.368C305.312 79.48 305.368 79.624 305.368 79.8V95.4C305.368 95.56 305.312 95.704 305.2 95.832C305.088 95.944 304.944 96 304.768 96H301.648Z" fill="white"/>
<rect x="262" y="5" width="81" height="36" rx="18" fill="#1F3DA7"/>
<path d="M296.608 32C296.432 32 296.28 31.944 296.152 31.832C296.04 31.72 295.984 31.576 295.984 31.4V29.696C295.984 29.216 296.184 28.824 296.584 28.52L299.08 26.072C300.536 24.952 301.64 24.08 302.392 23.456C303.144 22.832 303.712 22.264 304.096 21.752C304.48 21.24 304.672 20.752 304.672 20.288C304.672 19.024 304.048 18.392 302.8 18.392C302.144 18.392 301.64 18.592 301.288 18.992C300.936 19.376 300.704 19.864 300.592 20.456C300.496 20.824 300.224 21.008 299.776 21.008H296.776C296.632 21.008 296.512 20.96 296.416 20.864C296.32 20.768 296.272 20.648 296.272 20.504C296.304 19.48 296.584 18.544 297.112 17.696C297.656 16.832 298.416 16.152 299.392 15.656C300.384 15.144 301.52 14.888 302.8 14.888C304.144 14.888 305.296 15.104 306.256 15.536C307.216 15.968 307.944 16.576 308.44 17.36C308.936 18.144 309.184 19.056 309.184 20.096C309.184 21.216 308.832 22.24 308.128 23.168C307.44 24.08 306.384 25.072 304.96 26.144L302.752 28.376H308.92C309.096 28.376 309.24 28.432 309.352 28.544C309.48 28.656 309.544 28.8 309.544 28.976V31.4C309.544 31.576 309.48 31.72 309.352 31.832C309.24 31.944 309.096 32 308.92 32H296.608Z" fill="white"/>
<rect width="81" height="36" rx="18" fill="#1F3DA7"/>
<path d="M34.608 27C34.432 27 34.28 26.944 34.152 26.832C34.04 26.72 33.984 26.576 33.984 26.4V24.696C33.984 24.216 34.184 23.824 34.584 23.52L37.08 21.072C38.536 19.952 39.64 19.08 40.392 18.456C41.144 17.832 41.712 17.264 42.096 16.752C42.48 16.24 42.672 15.752 42.672 15.288C42.672 14.024 42.048 13.392 40.8 13.392C40.144 13.392 39.64 13.592 39.288 13.992C38.936 14.376 38.704 14.864 38.592 15.456C38.496 15.824 38.224 16.008 37.776 16.008H34.776C34.632 16.008 34.512 15.96 34.416 15.864C34.32 15.768 34.272 15.648 34.272 15.504C34.304 14.48 34.584 13.544 35.112 12.696C35.656 11.832 36.416 11.152 37.392 10.656C38.384 10.144 39.52 9.888 40.8 9.888C42.144 9.888 43.296 10.104 44.256 10.536C45.216 10.968 45.944 11.576 46.44 12.36C46.936 13.144 47.184 14.056 47.184 15.096C47.184 16.216 46.832 17.24 46.128 18.168C45.44 19.08 44.384 20.072 42.96 21.144L40.752 23.376H46.92C47.096 23.376 47.24 23.432 47.352 23.544C47.48 23.656 47.544 23.8 47.544 23.976V26.4C47.544 26.576 47.48 26.72 47.352 26.832C47.24 26.944 47.096 27 46.92 27H34.608Z" fill="white"/>
<path d="M81 18.0677C98.931 17.1474 135.207 25.2456 136.862 65M136.862 65L151 48.7807M136.862 65L115.483 55.6825" stroke="#1F3DA7" stroke-width="3"/>
<rect x="97" y="73" width="81" height="36" rx="18" fill="#1F3DA7"/>
<path d="M136.648 100C136.488 100 136.344 99.944 136.216 99.832C136.104 99.704 136.048 99.56 136.048 99.4V87.976L132.76 90.496C132.648 90.592 132.528 90.64 132.4 90.64C132.224 90.64 132.064 90.544 131.92 90.352L130.504 88.504C130.424 88.376 130.384 88.256 130.384 88.144C130.384 87.92 130.48 87.752 130.672 87.64L136.192 83.368C136.368 83.256 136.56 83.2 136.768 83.2H139.768C139.944 83.2 140.088 83.256 140.2 83.368C140.312 83.48 140.368 83.624 140.368 83.8V99.4C140.368 99.56 140.312 99.704 140.2 99.832C140.088 99.944 139.944 100 139.768 100H136.648Z" fill="white"/>
<path d="M153.28 176C153.12 176 152.976 175.944 152.848 175.832C152.736 175.704 152.68 175.56 152.68 175.4V159.8C152.68 159.624 152.736 159.48 152.848 159.368C152.976 159.256 153.12 159.2 153.28 159.2H160C162.048 159.2 163.656 159.672 164.824 160.616C166.008 161.56 166.6 162.936 166.6 164.744C166.6 166.536 166.016 167.888 164.848 168.8C163.68 169.696 162.064 170.144 160 170.144H157.144V175.4C157.144 175.576 157.08 175.72 156.952 175.832C156.84 175.944 156.696 176 156.52 176H153.28ZM159.88 166.832C160.584 166.832 161.136 166.656 161.536 166.304C161.936 165.936 162.136 165.4 162.136 164.696C162.136 164.04 161.944 163.52 161.56 163.136C161.192 162.736 160.632 162.536 159.88 162.536H157.072V166.832H159.88ZM175.955 176.24C173.699 176.24 171.931 175.688 170.651 174.584C169.387 173.48 168.755 171.816 168.755 169.592V159.8C168.755 159.624 168.811 159.48 168.923 159.368C169.051 159.256 169.195 159.2 169.355 159.2H172.451C172.627 159.2 172.771 159.256 172.883 159.368C173.011 159.48 173.075 159.624 173.075 159.8V169.568C173.075 170.608 173.315 171.392 173.795 171.92C174.291 172.432 175.003 172.688 175.931 172.688C176.843 172.688 177.547 172.424 178.043 171.896C178.539 171.368 178.787 170.592 178.787 169.568V159.8C178.787 159.624 178.843 159.48 178.955 159.368C179.083 159.256 179.227 159.2 179.387 159.2H182.507C182.683 159.2 182.827 159.256 182.939 159.368C183.051 159.48 183.107 159.624 183.107 159.8V169.592C183.107 171.816 182.467 173.48 181.187 174.584C179.923 175.688 178.179 176.24 175.955 176.24ZM192.553 176.24C191.033 176.24 189.729 176.016 188.641 175.568C187.553 175.12 186.729 174.536 186.169 173.816C185.625 173.08 185.337 172.28 185.305 171.416C185.305 171.288 185.353 171.176 185.449 171.08C185.561 170.968 185.689 170.912 185.833 170.912H188.857C189.049 170.912 189.201 170.952 189.313 171.032C189.441 171.096 189.569 171.2 189.697 171.344C189.905 171.76 190.241 172.104 190.705 172.376C191.169 172.648 191.785 172.784 192.553 172.784C193.465 172.784 194.161 172.64 194.641 172.352C195.121 172.064 195.361 171.672 195.361 171.176C195.361 170.824 195.233 170.536 194.977 170.312C194.737 170.088 194.353 169.888 193.825 169.712C193.297 169.536 192.513 169.336 191.473 169.112C189.553 168.712 188.113 168.128 187.153 167.36C186.209 166.576 185.737 165.464 185.737 164.024C185.737 163.048 186.009 162.176 186.553 161.408C187.097 160.64 187.873 160.04 188.881 159.608C189.889 159.176 191.065 158.96 192.409 158.96C193.801 158.96 195.009 159.2 196.033 159.68C197.057 160.16 197.833 160.768 198.361 161.504C198.905 162.224 199.193 162.936 199.225 163.64C199.225 163.784 199.177 163.904 199.081 164C198.985 164.096 198.865 164.144 198.721 164.144H195.553C195.361 164.144 195.201 164.112 195.073 164.048C194.961 163.984 194.857 163.88 194.761 163.736C194.665 163.368 194.401 163.056 193.969 162.8C193.553 162.544 193.033 162.416 192.409 162.416C191.689 162.416 191.137 162.544 190.753 162.8C190.369 163.056 190.177 163.432 190.177 163.928C190.177 164.264 190.281 164.544 190.489 164.768C190.713 164.992 191.065 165.2 191.545 165.392C192.041 165.568 192.745 165.752 193.657 165.944C195.145 166.216 196.329 166.56 197.209 166.976C198.105 167.376 198.761 167.904 199.177 168.56C199.593 169.2 199.801 170.008 199.801 170.984C199.801 172.056 199.489 172.992 198.865 173.792C198.257 174.576 197.401 175.184 196.297 175.616C195.209 176.032 193.961 176.24 192.553 176.24ZM202.803 176C202.627 176 202.483 175.944 202.371 175.832C202.259 175.72 202.203 175.576 202.203 175.4V159.8C202.203 159.624 202.259 159.48 202.371 159.368C202.499 159.256 202.643 159.2 202.803 159.2H205.899C206.075 159.2 206.219 159.256 206.331 159.368C206.459 159.48 206.523 159.624 206.523 159.8V165.584H212.427V159.8C212.427 159.624 212.483 159.48 212.595 159.368C212.707 159.256 212.851 159.2 213.027 159.2H216.123C216.299 159.2 216.443 159.256 216.555 159.368C216.667 159.48 216.723 159.624 216.723 159.8V175.4C216.723 175.576 216.667 175.72 216.555 175.832C216.443 175.944 216.299 176 216.123 176H213.027C212.851 176 212.707 175.944 212.595 175.832C212.483 175.72 212.427 175.576 212.427 175.4V169.424H206.523V175.4C206.523 175.576 206.459 175.72 206.331 175.832C206.219 175.944 206.075 176 205.899 176H202.803Z" fill="#1F3DA7"/>
</svg>
