<svg width="330" height="315" viewBox="0 0 330 315" fill="none" xmlns="http://www.w3.org/2000/svg">
    <rect x="124" y="30" width="81" height="36" rx="18" fill="#1F3DA7"/>
    <rect x="126" y="79" width="77" height="32" rx="16" stroke="#1F3DA7" stroke-width="4"/>
    <rect x="126" y="175" width="77" height="32" rx="16" stroke="#1F3DA7" stroke-width="4"/>
    <rect x="126" y="129" width="77" height="32" rx="16" stroke="#1F3DA7" stroke-width="4"/>
    <rect x="126" y="225" width="77" height="32" rx="16" stroke="#1F3DA7" stroke-width="4"/>
    <line x1="164.5" y1="65" x2="164.5" y2="79" stroke="#1F3DA7" stroke-width="3"/>
    <line x1="164.5" y1="163" x2="164.5" y2="173" stroke="#1F3DA7" stroke-width="3"/>
    <line x1="164.5" y1="111" x2="164.5" y2="127" stroke="#1F3DA7" stroke-width="3"/>
    <line x1="164.5" y1="205" x2="164.5" y2="223" stroke="#1F3DA7" stroke-width="3"/>
    <path d="M154.85 55C152.366 55 151.124 53.818 151.124 51.454V47.998H149.72C149.588 47.998 149.474 47.956 149.378 47.872C149.294 47.788 149.252 47.68 149.252 47.548V46.09C149.252 45.958 149.294 45.85 149.378 45.766C149.474 45.682 149.588 45.64 149.72 45.64H151.124V42.67C151.124 42.538 151.166 42.43 151.25 42.346C151.346 42.262 151.454 42.22 151.574 42.22H153.662C153.794 42.22 153.902 42.262 153.986 42.346C154.07 42.43 154.112 42.538 154.112 42.67V45.64H156.362C156.494 45.64 156.602 45.682 156.686 45.766C156.782 45.85 156.83 45.958 156.83 46.09V47.548C156.83 47.68 156.782 47.788 156.686 47.872C156.602 47.956 156.494 47.998 156.362 47.998H154.112V51.202C154.112 52.09 154.454 52.534 155.138 52.534H156.524C156.656 52.534 156.764 52.576 156.848 52.66C156.932 52.744 156.974 52.852 156.974 52.984V54.55C156.974 54.67 156.932 54.778 156.848 54.874C156.764 54.958 156.656 55 156.524 55H154.85ZM162.892 55.18C161.404 55.18 160.258 54.826 159.454 54.118C158.65 53.41 158.212 52.414 158.14 51.13C158.128 50.974 158.122 50.704 158.122 50.32C158.122 49.936 158.128 49.666 158.14 49.51C158.212 48.238 158.662 47.248 159.49 46.54C160.318 45.82 161.452 45.46 162.892 45.46C164.344 45.46 165.484 45.82 166.312 46.54C167.14 47.248 167.59 48.238 167.662 49.51C167.674 49.666 167.68 49.936 167.68 50.32C167.68 50.704 167.674 50.974 167.662 51.13C167.59 52.414 167.152 53.41 166.348 54.118C165.544 54.826 164.392 55.18 162.892 55.18ZM162.892 52.984C163.42 52.984 163.81 52.828 164.062 52.516C164.314 52.192 164.458 51.7 164.494 51.04C164.506 50.92 164.512 50.68 164.512 50.32C164.512 49.96 164.506 49.72 164.494 49.6C164.458 48.952 164.308 48.466 164.044 48.142C163.792 47.818 163.408 47.656 162.892 47.656C161.896 47.656 161.368 48.304 161.308 49.6L161.29 50.32L161.308 51.04C161.332 51.7 161.47 52.192 161.722 52.516C161.986 52.828 162.376 52.984 162.892 52.984ZM169.918 58.42C169.798 58.42 169.69 58.378 169.594 58.294C169.51 58.21 169.468 58.102 169.468 57.97V46.09C169.468 45.958 169.51 45.85 169.594 45.766C169.69 45.682 169.798 45.64 169.918 45.64H171.952C172.084 45.64 172.192 45.682 172.276 45.766C172.36 45.85 172.402 45.958 172.402 46.09V46.738C173.05 45.886 173.98 45.46 175.192 45.46C176.368 45.46 177.286 45.826 177.946 46.558C178.606 47.29 178.966 48.322 179.026 49.654C179.038 49.81 179.044 50.032 179.044 50.32C179.044 50.608 179.038 50.83 179.026 50.986C178.978 52.282 178.618 53.308 177.946 54.064C177.274 54.808 176.356 55.18 175.192 55.18C174.016 55.18 173.14 54.778 172.564 53.974V57.97C172.564 58.102 172.522 58.21 172.438 58.294C172.354 58.378 172.246 58.42 172.114 58.42H169.918ZM174.22 52.768C174.784 52.768 175.186 52.6 175.426 52.264C175.678 51.928 175.822 51.466 175.858 50.878C175.882 50.638 175.894 50.452 175.894 50.32C175.894 50.188 175.882 50.002 175.858 49.762C175.822 49.174 175.678 48.712 175.426 48.376C175.186 48.04 174.784 47.872 174.22 47.872C173.668 47.872 173.26 48.046 172.996 48.394C172.744 48.73 172.6 49.168 172.564 49.708L172.546 50.374L172.564 51.058C172.588 51.55 172.738 51.958 173.014 52.282C173.29 52.606 173.692 52.768 174.22 52.768Z" fill="white"/>
</svg>

